<svg width="99" height="74" viewBox="0 0 99 74" fill="none" xmlns="http://www.w3.org/2000/svg">
<path d="M98.5 18.5C98.5 8.55887 90.4411 0.500001 80.5 0.500002L53.5 0.500004C50.7386 0.500004 48.5 2.73858 48.5 5.5L48.5 39.5C48.5 45.0228 52.9772 49.5 58.5 49.5L93.5 49.5C96.2614 49.5 98.5 47.2614 98.5 44.5L98.5 18.5Z" fill="#FFF1DA"/>
<path d="M64.1813 56.6865H53.079L56.1978 59.1481H39.4307V65.0939H63.7324L66.8514 67.554H39.4307V73.4998H78.3611V67.875L64.1813 56.6865Z" fill="#FF9811"/>
<path d="M12.0097 67.554L15.1287 65.0939H39.4304V59.1481H22.6632L25.782 56.6865H14.6798L0.5 67.875V73.4998H39.4304V67.554H12.0097Z" fill="#FFA733"/>
<path d="M39.4307 56.6871H69.7849V35.8574H39.4307V56.6871ZM50.526 43.2994H58.6896V49.2452H50.526V43.2994Z" fill="#FFCD00"/>
<path d="M69.7849 3.5H39.4307V15.3916H69.7849V3.5Z" fill="#FFCD00"/>
<path d="M39.4304 56.6871V35.8574H9.07617V56.6871H39.4304ZM20.1715 43.2994H28.3351V49.2452H20.1715V43.2994Z" fill="#FFDE55"/>
<path d="M39.4304 3.5H9.07617V15.3916H39.4304V3.5Z" fill="#FFDE55"/>
<path d="M69.7849 15.3916H39.4307V35.8571H69.7849V15.3916Z" fill="#C4C8F5"/>
<path d="M39.4304 15.3916H9.07617V35.8571H39.4304V15.3916Z" fill="#E1E3FA"/>
<path d="M58.689 43.2988H50.5254V49.2448H58.689V43.2988Z" fill="white"/>
<path d="M28.3354 43.2988H20.1719V49.2448H28.3354V43.2988Z" fill="white"/>
</svg>
